<mxfile host="app.diagrams.net" modified="2024-04-02T00:49:41.921Z" agent="Mozilla/5.0 (Windows NT 10.0; Win64; x64) AppleWebKit/537.36 (KHTML, like Gecko) Chrome/123.0.0.0 Safari/537.36" version="24.0.7" etag="ox0t1F4n-y2qBbrtZajc" type="github">
  <diagram name="Page-1" id="b6lIsPcBh-bqpJa5Nqlt">
    <mxGraphModel>
      <root>
        <mxCell id="0" />
        <mxCell id="1" parent="0" />
      </root>
    </mxGraphModel>
  </diagram>
</mxfile>
